ffmpeg started on 2016-12-12 at 04:25:14
Report written to "Output/theora/results/ffmpeg/Tsintel4000k.log"
Command line:
Tools/ffmpeg/ffmpeg -i Output/theora/encoded/sintel4000k.mkv -c:v rawvideo -pix_fmt yuv420p Output/theora/transcoded/sintel4000k.yuv
ffmpeg version N-82227-gdb23fde Copyright (c) 2000-2016 the FFmpeg developers
  built with gcc 5.4.0 (Ubuntu 5.4.0-6ubuntu1~16.04.2) 20160609
  configuration: --prefix=/home/jaroslav/ffmpeg_build --pkg-config-flags=--static --extra-cflags=-I/home/jaroslav/ffmpeg_build/include --extra-ldflags=-L/home/jaroslav/ffmpeg_build/lib --bindir=/home/jaroslav/bin --enable-gpl --enable-libass --enable-libfdk-aac --enable-libfreetype --enable-libmp3lame --enable-libopus --enable-libtheora --enable-libvorbis --enable-libvpx --enable-libx264 --enable-libx265 --enable-nvenc --enable-libmfx --enable-libxvid --enable-libgsm --enable-libopencore-amrnb --enable-version3 --enable-nonfree
  libavutil      55. 35.100 / 55. 35.100
  libavcodec     57. 66.101 / 57. 66.101
  libavformat    57. 57.100 / 57. 57.100
  libavdevice    57.  2.100 / 57.  2.100
  libavfilter     6. 66.100 /  6. 66.100
  libswscale      4.  3.100 /  4.  3.100
  libswresample   2.  4.100 /  2.  4.100
  libpostproc    54.  2.100 / 54.  2.100
Input #0, matroska,webm, from 'Output/theora/encoded/sintel4000k.mkv':
  Metadata:
    ENCODER         : Lavf57.57.100
  Duration: 00:00:20.83, start: 0.000000, bitrate: 4242 kb/s
    Stream #0:0: Video: theora, yuv420p(progressive), 4096x1744 [SAR 1:1 DAR 256:109], 24 fps, 24 tbr, 1k tbn, 24 tbc (default)
    Metadata:
      ENCODER         : Lavc57.66.101 libtheora
      DURATION        : 00:00:20.834000000
Output #0, rawvideo, to 'Output/theora/transcoded/sintel4000k.yuv':
  Metadata:
    encoder         : Lavf57.57.100
    Stream #0:0: Video: rawvideo (I420 / 0x30323449), yuv420p, 4096x1744 [SAR 1:1 DAR 256:109], q=2-31, 200 kb/s, 24 fps, 24 tbn, 24 tbc (default)
    Metadata:
      DURATION        : 00:00:20.834000000
      encoder         : Lavc57.66.101 rawvideo
Stream mapping:
  Stream #0:0 -> #0:0 (theora (native) -> rawvideo (native))
Press [q] to stop, [?] for help
frame=   21 fps=0.0 q=-0.0 size=  219744kB time=00:00:00.87 bitrate=2057306.1kbits/s speed=1.67x    frame=   42 fps= 40 q=-0.0 size=  439488kB time=00:00:01.75 bitrate=2057306.1kbits/s speed=1.68x    frame=   63 fps= 40 q=-0.0 size=  659232kB time=00:00:02.62 bitrate=2057306.1kbits/s speed=1.69x    frame=   85 fps= 41 q=-0.0 size=  889440kB time=00:00:03.54 bitrate=2057305.9kbits/s dup=3 drop=0 speed=1.69x    frame=  107 fps= 41 q=-0.0 size= 1119648kB time=00:00:04.45 bitrate=2057306.3kbits/s dup=11 drop=0 speed=1.69x    frame=  131 fps= 41 q=-0.0 size= 1370784kB time=00:00:05.45 bitrate=2057306.2kbits/s dup=22 drop=0 speed=1.72x    frame=  153 fps= 41 q=-0.0 size= 1600992kB time=00:00:06.37 bitrate=2057306.1kbits/s dup=35 drop=0 speed=1.71x    frame=  174 fps= 41 q=-0.0 size= 1820736kB time=00:00:07.25 bitrate=2057306.1kbits/s dup=43 drop=0 speed=1.71x    frame=  194 fps= 41 q=-0.0 size= 2030016kB time=00:00:08.08 bitrate=2057306.2kbits/s dup=50 drop=0 speed= 1.7x    frame=  216 fps= 41 q=-0.0 size= 2260224kB time=00:00:09.00 bitrate=2057306.1kbits/s dup=60 drop=0 speed= 1.7x    frame=  232 fps= 40 q=-0.0 size= 2427648kB time=00:00:09.66 bitrate=2057306.0kbits/s dup=67 drop=0 speed=1.66x    frame=  251 fps= 40 q=-0.0 size= 2626464kB time=00:00:10.45 bitrate=2057306.2kbits/s dup=78 drop=0 speed=1.65x    frame=  271 fps= 40 q=-0.0 size= 2835744kB time=00:00:11.29 bitrate=2057306.1kbits/s dup=87 drop=0 speed=1.65x    frame=  292 fps= 40 q=-0.0 size= 3055488kB time=00:00:12.16 bitrate=2057306.1kbits/s dup=91 drop=0 speed=1.65x    frame=  313 fps= 40 q=-0.0 size= 3275232kB time=00:00:13.04 bitrate=2057306.1kbits/s dup=94 drop=0 speed=1.65x    frame=  322 fps= 38 q=-0.0 size= 3369408kB time=00:00:13.41 bitrate=2057306.1kbits/s dup=94 drop=0 speed=1.59x    frame=  339 fps= 38 q=-0.0 size= 3547296kB time=00:00:14.12 bitrate=2057306.1kbits/s dup=94 drop=0 speed=1.58x    frame=  356 fps= 38 q=-0.0 size= 3725184kB time=00:00:14.83 bitrate=2057306.2kbits/s dup=94 drop=0 speed=1.57x    frame=  375 fps= 38 q=-0.0 size= 3924000kB time=00:00:15.62 bitrate=2057306.1kbits/s dup=94 drop=0 speed=1.57x    frame=  394 fps= 38 q=-0.0 size= 4122816kB time=00:00:16.41 bitrate=2057306.1kbits/s dup=94 drop=0 speed=1.57x    frame=  410 fps= 37 q=-0.0 size= 4290240kB time=00:00:17.08 bitrate=2057306.2kbits/s dup=94 drop=0 speed=1.56x    frame=  425 fps= 37 q=-0.0 size= 4447200kB time=00:00:17.70 bitrate=2057306.2kbits/s dup=94 drop=0 speed=1.54x    frame=  441 fps= 37 q=-0.0 size= 4614624kB time=00:00:18.37 bitrate=2057306.1kbits/s dup=94 drop=0 speed=1.53x    frame=  452 fps= 36 q=-0.0 size= 4729728kB time=00:00:18.83 bitrate=2057306.1kbits/s dup=94 drop=0 speed= 1.5x    frame=  466 fps= 36 q=-0.0 size= 4876224kB time=00:00:19.41 bitrate=2057306.1kbits/s dup=94 drop=0 speed=1.49x    frame=  479 fps= 35 q=-0.0 size= 5012256kB time=00:00:19.95 bitrate=2057306.1kbits/s dup=94 drop=0 speed=1.46x    frame=  486 fps= 34 q=-0.0 size= 5085504kB time=00:00:20.25 bitrate=2057306.1kbits/s dup=94 drop=0 speed= 1.4x    frame=  500 fps= 33 q=-0.0 size= 5232000kB time=00:00:20.83 bitrate=2057306.1kbits/s dup=94 drop=0 speed=1.39x    frame=  500 fps= 33 q=-0.0 Lsize= 5232000kB time=00:00:20.83 bitrate=2057306.1kbits/s dup=94 drop=0 speed=1.39x    
video:5232000kB audio:0kB subtitle:0kB other streams:0kB global headers:0kB muxing overhead: 0.000000%
